# xmcd
#
# Track frame offsets:
#	150
#	63270
#	90915
#	164750
#	186792
#	231375
#	283475
#	305075
#	335835
#
# Disc length: 4717 seconds
#
# Revision: 1
# Processed by: cddbd v1.5.1PL0 Copyright (c) Steve Scherf et al.
# Submitted via: CDex 1.50Beta5
#
DISCID=89126b09
DTITLE=ベルリオーズ - 幻想交響曲
DYEAR=1900
DGENRE=Classical
TTITLE0=幻想交響曲:第1楽章
TTITLE1=第2楽章
TTITLE2=第3楽章
TTITLE3=第4楽章
TTITLE4=第5楽章
TTITLE5=「真夏の世の夢」より、序曲
TTITLE6=スケルツォ
TTITLE7=夜想曲
TTITLE8=結婚行進曲
EXTD=
EXTT0=
EXTT1=
EXTT2=
EXTT3=
EXTT4=
EXTT5=
EXTT6=
EXTT7=
EXTT8=
PLAYORDER=
